<svg width="60" height="60" viewBox="0 0 60 60" fill="none" xmlns="http://www.w3.org/2000/svg">
<path fill-rule="evenodd" clip-rule="evenodd" d="M30 58V34L40 34L30 58Z" fill="#FF3A2E"/>
<path fill-rule="evenodd" clip-rule="evenodd" d="M30 58V34L20 34L30 58Z" fill="#FF7253"/>
<path fill-rule="evenodd" clip-rule="evenodd" d="M30 44C41.598 44 51 34.598 51 23C51 11.402 41.598 2 30 2V44Z" fill="#FF3A2E"/>
<path fill-rule="evenodd" clip-rule="evenodd" d="M30 2C18.402 2 9 11.402 9 23C9 34.598 18.402 44 30 44L30 2Z" fill="#FF7253"/>
<circle cx="30" cy="23" r="14" fill="white"/>
<path d="M37.996 31.888C37.7907 31.944 37.464 32 37.016 32.056C36.5867 32.112 36.1573 32.14 35.728 32.14C35.2987 32.14 34.916 32.1027 34.58 32.028C34.2627 31.972 33.992 31.86 33.768 31.692C33.544 31.524 33.376 31.2907 33.264 30.992C33.152 30.6933 33.096 30.3013 33.096 29.816V25.448H27.72V31.888C27.5147 31.944 27.188 32 26.74 32.056C26.3107 32.112 25.8813 32.14 25.452 32.14C25.0227 32.14 24.64 32.1027 24.304 32.028C23.9867 31.972 23.716 31.86 23.492 31.692C23.268 31.524 23.1 31.2907 22.988 30.992C22.876 30.6933 22.82 30.3013 22.82 29.816V15.032C23.0253 14.9947 23.352 14.948 23.8 14.892C24.248 14.8173 24.6773 14.78 25.088 14.78C25.5173 14.78 25.8907 14.8173 26.208 14.892C26.544 14.948 26.824 15.06 27.048 15.228C27.272 15.396 27.44 15.6293 27.552 15.928C27.664 16.2267 27.72 16.6187 27.72 17.104V21.584H33.096V15.032C33.3013 14.9947 33.628 14.948 34.076 14.892C34.524 14.8173 34.9533 14.78 35.364 14.78C35.7933 14.78 36.1667 14.8173 36.484 14.892C36.82 14.948 37.1 15.06 37.324 15.228C37.548 15.396 37.716 15.6293 37.828 15.928C37.94 16.2267 37.996 16.6187 37.996 17.104V31.888Z" fill="#FF3A2E"/>
</svg>
